<svg xmlns="http://www.w3.org/2000/svg" width="143.428" height="73.685" viewBox="0 0 143.428 73.685">
  <g id="그룹_346" data-name="그룹 346" transform="translate(-120 -28.92)">
    <path id="패스_2" data-name="패스 2" d="M33.034,15.623A16.085,16.085,0,0,0,18.012,27.2c1.215-3.383,3.969-5.745,7.178-5.745,4.333,0,7.844,4.3,7.844,9.608H48.72A15.949,15.949,0,0,0,33.034,15.623" transform="translate(132.424 49.334)" fill="#7b7c7e"/>
    <path id="패스_3" data-name="패스 3" d="M34.746,34.364c4.331,0,7.842-4.3,7.842-9.606H26.9c0,5.3,3.51,9.606,7.844,9.606" transform="translate(138.556 55.635)" fill="#95c3a8"/>
    <path id="패스_4" data-name="패스 4" d="M25.464,19.072c-3.209,0-5.965,2.362-7.18,5.745a18.184,18.184,0,0,0-.666,3.861H33.306c0-5.3-3.511-9.606-7.842-9.606" transform="translate(132.152 51.713)" fill="#dcab84"/>
    <g id="그룹_345" data-name="그룹 345" transform="translate(0 3.648)">
      <path id="패스_1" data-name="패스 1" d="M135.664,48.216a2.347,2.347,0,0,1-2.29,2.565H121.929v7.183h11.644c7.665,0,9.855-5.848,9.855-10.877,0-7.491-13.836-12.416-13.836-15.649a2.456,2.456,0,0,1,2.589-2.719h9.954V22.05H130.49c-3.932,0-8.66,2.873-8.66,9.542,0,9.03,13.834,12.827,13.834,16.624M101.75,22.05H94.385V47.4c0,5.593,3.883,11.185,12.193,11.185s12.193-5.591,12.193-11.185L118.72,22.05h-7.366v23.19c0,4.823-2.19,5.951-4.777,5.951-2.638,0-4.828-1.129-4.828-5.951ZM69.031,40.007c0,10.877,8.062,17.957,16.423,17.957h5.772V50.781H85.851c-5.076,0-9.057-5.695-9.057-10.774s3.981-10.774,9.057-10.774h5.375V22.05H85.454c-8.361,0-16.423,7.08-16.423,17.957m-39.226-.1A15.671,15.671,0,1,1,45.476,55.577,15.688,15.688,0,0,1,29.806,39.9M142.889,15.355V4.1H14.936C4.481,4.1,0,11.711,0,21.694v36.7H11.377V38.97H23.815c-.014.311-.024.622-.024.934a21.708,21.708,0,1,0,3.653-12.029H11.377V22.011c0-4.6,2.151-6.656,6.84-6.656Z" transform="translate(120 37.365)" fill="#1a1311"/>
      <path id="패스_9" data-name="패스 9" d="M125.673,10.462h2.075V0h-2.075Zm-3.238-2.948v.443a1.116,1.116,0,0,1-.131.555,1.186,1.186,0,0,1-.351.388,1.8,1.8,0,0,1-.507.235,2.1,2.1,0,0,1-.589.082,1.334,1.334,0,0,1-.662-.18.592.592,0,0,1-.32-.552.667.667,0,0,1,.229-.54,1.508,1.508,0,0,1,.555-.293,2.915,2.915,0,0,1,.678-.116c.235-.015.43-.021.586-.021Zm0,2.948h1.911V7.044a7.218,7.218,0,0,0-.137-1.489,2.635,2.635,0,0,0-.491-1.087,2.17,2.17,0,0,0-.943-.668,4.177,4.177,0,0,0-1.5-.229,4.856,4.856,0,0,0-1.605.269,3.809,3.809,0,0,0-1.355.809l1.108,1.135a2.517,2.517,0,0,1,.754-.586,2.024,2.024,0,0,1,.934-.217,1.422,1.422,0,0,1,.934.327,1.08,1.08,0,0,1,.394.879c-.284,0-.6,0-.934.012a9.389,9.389,0,0,0-1.01.082,6.388,6.388,0,0,0-.977.217,2.884,2.884,0,0,0-.836.409,1.892,1.892,0,0,0-.58.662,2.06,2.06,0,0,0-.217.983,1.965,1.965,0,0,0,.2.9,1.886,1.886,0,0,0,.525.65,2.24,2.24,0,0,0,.769.394,3.087,3.087,0,0,0,.906.131,3.139,3.139,0,0,0,1.212-.235,1.939,1.939,0,0,0,.919-.775h.027Zm-12.165,0h2.078V7.114a4.743,4.743,0,0,1,.04-.638,1.574,1.574,0,0,1,.174-.546.97.97,0,0,1,.382-.388,1.266,1.266,0,0,1,.65-.146.966.966,0,0,1,.613.168,1,1,0,0,1,.32.427,2.019,2.019,0,0,1,.125.574c.012.211.018.409.018.6v3.293h2.078V6.754a7.738,7.738,0,0,0-.1-1.26,2.708,2.708,0,0,0-.366-1.01,1.853,1.853,0,0,0-.754-.671,2.863,2.863,0,0,0-1.276-.241,2.37,2.37,0,0,0-.69.095,2.55,2.55,0,0,0-.568.25,1.959,1.959,0,0,0-.43.345,1.771,1.771,0,0,0-.278.388h-.027V3.736H110.27Zm-5.881,0h2.075V7.651a7.013,7.013,0,0,1,.055-.913,1.784,1.784,0,0,1,.244-.711,1.253,1.253,0,0,1,.531-.464,2.183,2.183,0,0,1,.943-.168,2.671,2.671,0,0,1,.449.037,2.915,2.915,0,0,1,.436.1v-1.9a1.8,1.8,0,0,0-.333-.055c-.119-.009-.241-.012-.36-.012a1.993,1.993,0,0,0-1.148.311,2.56,2.56,0,0,0-.79.934h-.027V3.736h-2.075ZM102.92,3.736h-2.075V7.084a4.74,4.74,0,0,1-.04.638,1.553,1.553,0,0,1-.174.546.99.99,0,0,1-.382.388,1.266,1.266,0,0,1-.65.146.976.976,0,0,1-.616-.168.992.992,0,0,1-.317-.427,1.921,1.921,0,0,1-.125-.574c-.012-.208-.021-.409-.021-.6V3.736H96.444V7.444a8.1,8.1,0,0,0,.092,1.26,2.6,2.6,0,0,0,.36,1.01,1.832,1.832,0,0,0,.76.671,2.9,2.9,0,0,0,1.279.241,2.377,2.377,0,0,0,.693-.095,2.55,2.55,0,0,0,.568-.25,1.771,1.771,0,0,0,.421-.345,2.356,2.356,0,0,0,.284-.388h.027v.913h1.993ZM90.267,5.866a1.828,1.828,0,0,1,2.448,0A1.749,1.749,0,0,1,93.151,7.1a1.749,1.749,0,0,1-.436,1.233,1.828,1.828,0,0,1-2.448,0A1.736,1.736,0,0,1,89.83,7.1a1.736,1.736,0,0,1,.436-1.233M88.045,8.552a3.327,3.327,0,0,0,.794,1.114,3.55,3.55,0,0,0,1.19.714,4.437,4.437,0,0,0,2.921,0,3.49,3.49,0,0,0,1.19-.714,3.293,3.293,0,0,0,.8-1.114,3.548,3.548,0,0,0,.29-1.453,3.548,3.548,0,0,0-.29-1.453,3.293,3.293,0,0,0-.8-1.114,3.539,3.539,0,0,0-1.19-.714,4.437,4.437,0,0,0-2.921,0,3.6,3.6,0,0,0-1.19.714,3.327,3.327,0,0,0-.794,1.114A3.5,3.5,0,0,0,87.752,7.1a3.5,3.5,0,0,0,.293,1.453M86.412.662H84.251V6.946c0,.186-.006.385-.021.6a2.213,2.213,0,0,1-.116.6,1.122,1.122,0,0,1-.305.464.848.848,0,0,1-.58.186.941.941,0,0,1-.644-.25.928.928,0,0,1-.327-.607l-1.978.482a2.6,2.6,0,0,0,1.038,1.73,3.375,3.375,0,0,0,1.965.555,3.722,3.722,0,0,0,1.611-.3,2.348,2.348,0,0,0,.949-.787A3.005,3.005,0,0,0,86.293,8.5a7.148,7.148,0,0,0,.119-1.315Zm-17.122,9.8h2.075V7.056h.027l2.271,3.406h2.616l-2.741-3.7,2.674-3.031H73.664l-2.3,2.658V0H69.29Zm-7.944,0h2.078V7.114a4.74,4.74,0,0,1,.04-.638,1.573,1.573,0,0,1,.174-.546.99.99,0,0,1,.382-.388,1.266,1.266,0,0,1,.65-.146.966.966,0,0,1,.613.168,1,1,0,0,1,.32.427,2.02,2.02,0,0,1,.125.574c.012.211.018.409.018.6v3.293h2.078V6.754a7.742,7.742,0,0,0-.1-1.26,2.708,2.708,0,0,0-.366-1.01,1.853,1.853,0,0,0-.754-.671,2.863,2.863,0,0,0-1.276-.241,2.37,2.37,0,0,0-.69.095,2.551,2.551,0,0,0-.568.25,1.959,1.959,0,0,0-.43.345,1.77,1.77,0,0,0-.278.388h-.027V3.736H61.346ZM58.135,7.514v.443A1.116,1.116,0,0,1,58,8.512a1.186,1.186,0,0,1-.351.388,1.8,1.8,0,0,1-.507.235,2.1,2.1,0,0,1-.589.082,1.334,1.334,0,0,1-.662-.18.592.592,0,0,1-.32-.552.667.667,0,0,1,.229-.54,1.533,1.533,0,0,1,.555-.293,2.914,2.914,0,0,1,.678-.116c.235-.015.43-.021.589-.021Zm0,2.948h1.911V7.044a7.217,7.217,0,0,0-.137-1.489,2.6,2.6,0,0,0-.491-1.087,2.17,2.17,0,0,0-.943-.668,4.177,4.177,0,0,0-1.5-.229,4.856,4.856,0,0,0-1.605.269,3.809,3.809,0,0,0-1.355.809L55.12,5.784a2.517,2.517,0,0,1,.754-.586,2.023,2.023,0,0,1,.934-.217,1.422,1.422,0,0,1,.934.327,1.08,1.08,0,0,1,.394.879c-.284,0-.6,0-.934.012a9.452,9.452,0,0,0-1.01.082,6.388,6.388,0,0,0-.977.217,2.884,2.884,0,0,0-.836.409,1.924,1.924,0,0,0-.58.662,2.06,2.06,0,0,0-.217.983,2.005,2.005,0,0,0,.2.9,1.886,1.886,0,0,0,.525.65,2.24,2.24,0,0,0,.769.394,3.087,3.087,0,0,0,.906.131,3.139,3.139,0,0,0,1.212-.235,1.939,1.939,0,0,0,.919-.775h.027Zm-8.622,0h2.161V2.573h2.8V.662H46.717V2.573h2.8Zm-13.951,0h2.075V7.056h.031l2.268,3.406h2.616l-2.741-3.7,2.674-3.031H39.936l-2.3,2.658V0H35.562Zm-7.944,0H29.7V7.114a4.738,4.738,0,0,1,.04-.638,1.573,1.573,0,0,1,.174-.546.99.99,0,0,1,.381-.388,1.266,1.266,0,0,1,.65-.146.966.966,0,0,1,.613.168,1,1,0,0,1,.32.427A2.019,2.019,0,0,1,32,6.565c.012.211.018.409.018.6v3.293H34.1V6.754a7.741,7.741,0,0,0-.1-1.26,2.708,2.708,0,0,0-.366-1.01,1.853,1.853,0,0,0-.754-.671A2.863,2.863,0,0,0,31.6,3.571a2.37,2.37,0,0,0-.69.095,2.551,2.551,0,0,0-.568.25,1.959,1.959,0,0,0-.43.345,1.879,1.879,0,0,0-.278.388h-.027V3.736H27.618ZM24.236,2.469a1.2,1.2,0,0,0,1.7,0,1.15,1.15,0,0,0,.354-.852,1.155,1.155,0,0,0-.354-.852,1.2,1.2,0,0,0-1.7,0,1.167,1.167,0,0,0-.354.852,1.162,1.162,0,0,0,.354.852m-.189,7.993h2.075V3.736H24.047ZM16.075,0V10.462h2.078V7.114a4.74,4.74,0,0,1,.04-.638,1.573,1.573,0,0,1,.174-.546.99.99,0,0,1,.382-.388A1.266,1.266,0,0,1,19.4,5.4a.982.982,0,0,1,.617.168,1.016,1.016,0,0,1,.317.427,1.921,1.921,0,0,1,.125.574c.012.211.021.409.021.6v3.293h2.075V6.754a7.741,7.741,0,0,0-.1-1.26,2.708,2.708,0,0,0-.366-1.01,1.853,1.853,0,0,0-.754-.671,2.863,2.863,0,0,0-1.276-.241,2.37,2.37,0,0,0-.69.095,2.332,2.332,0,0,0-.555.25,1.841,1.841,0,0,0-.4.345,1.292,1.292,0,0,0-.235.388h-.027V0ZM10.292,10.462h2.158V2.573h2.8V.662H7.5V2.573h2.8Z" transform="translate(134.779 25.271)" fill="#1a1311"/>
    </g>
  </g>
</svg>
